<?xml version="1.0" standalone="no"?><!DOCTYPE svg PUBLIC "-//W3C//DTD SVG 1.1//EN" "http://www.w3.org/Graphics/SVG/1.1/DTD/svg11.dtd"><svg width="200" height="200" viewBox="0 0 200 200" version="1.1" xmlns="http://www.w3.org/2000/svg" xmlns:xlink="http://www.w3.org/1999/xlink"><defs><style type="text/css"><![CDATA[
@font-face { font-family: ifont; src: url("//at.alicdn.com/t/font_1442373896_4754455.eot?#iefix") format("embedded-opentype"), url("//at.alicdn.com/t/font_1442373896_4754455.woff") format("woff"), url("//at.alicdn.com/t/font_1442373896_4754455.ttf") format("truetype"), url("//at.alicdn.com/t/font_1442373896_4754455.svg#ifont") format("svg"); }

]]></style></defs><g class="transform-group"><g transform="scale(0.1953125, 0.1953125)"><path d="M996.608 308.48c26.56-27.392 26.496-71.04-0.64-98.176s-70.784-27.2-98.24-0.576l-0.192-0.192-503.552 503.68L125.952 445.184l0 0C98.56 417.984 54.336 418.048 27.008 445.312-0.32 472.64-0.32 516.928 26.88 544.32l0 0 0.064 0.064c0 0 0 0.064 0.064 0.064s0.064 0 0.064 0.064l320.384 320.512 8.896-8.896c27.328 23.936 68.48 23.616 94.72-2.048l0.064 0.064 0.384-0.384c0.064-0.064 0.128-0.064 0.192-0.128s0.064-0.128 0.128-0.192l544-544c0.064 0 0.128 0 0.128-0.064s0.064-0.064 0.064-0.064l0.704-0.704L996.608 308.48z" fill="#272636"></path></g></g></svg>